<?xml version="1.0" standalone="no"?>
<!DOCTYPE svg PUBLIC "-//W3C//DTD SVG 20010904//EN"
 "http://www.w3.org/TR/2001/REC-SVG-20010904/DTD/svg10.dtd">
<svg version="1.0" xmlns="http://www.w3.org/2000/svg"
 width="225.000000pt" height="225.000000pt" viewBox="0 0 225.000000 225.000000"
 preserveAspectRatio="xMidYMid meet">
<metadata>
Created by potrace 1.14, written by Peter Selinger 2001-2017
</metadata>
<g transform="translate(0.000000,225.000000) scale(0.100000,-0.100000)"
fill="#000000" stroke="none">
<path d="M970 2240 c-155 -22 -344 -94 -472 -181 -81 -55 -216 -186 -279 -269
-293 -388 -287 -958 13 -1347 290 -377 781 -531 1238 -388 333 104 619 391
724 725 130 411 21 851 -284 1147 -162 157 -327 246 -555 298 -84 20 -295 27
-385 15z m313 -396 c40 -9 103 -30 140 -48 l68 -31 -183 -183 -183 -182 -183
183 -183 184 63 28 c139 63 315 82 461 49z m-615 -902 l-183 -183 -31 68 c-85
183 -85 407 -1 596 l30 68 184 -183 183 -183 -182 -183z m1176 341 c33 -146
15 -317 -47 -456 l-30 -68 -184 183 -183 183 182 183 183 183 31 -68 c18 -37
39 -100 48 -140z m-421 -829 c-183 -85 -407 -85 -596 -1 l-68 30 183 184 183
183 183 -182 183 -183 -68 -31z"/>
</g>
</svg>
